<?xml version="1.0" encoding="UTF-8"?>
<!DOCTYPE svg PUBLIC "-//W3C//DTD SVG 1.1//EN" "http://www.w3.org/Graphics/SVG/1.1/DTD/svg11.dtd">
<svg version="1.1" xmlns="http://www.w3.org/2000/svg" xmlns:xlink="http://www.w3.org/1999/xlink" x="0" y="0" width="195.218" height="129.837" viewBox="0, 0, 195.218, 129.837">
  <defs>
    <clipPath id="Clip_1">
      <path d="M379.23,929.071 L446.139,929.071 L446.139,975 L379.23,975 z M419.67,937.071 C417.531,939.935 418.745,938.312 416.025,941.936 C406.435,933.955 384.665,940.463 385.241,940.798 C416.595,959.039 420.287,968.077 420.928,966.898 C426.674,956.654 433.543,947.091 440.139,937.391 L419.67,937.391 L419.67,937.071 z"/>
    </clipPath>
    <filter id="Shadow_2">
      <feGaussianBlur in="SourceAlpha" stdDeviation="2.5"/>
      <feOffset dx="0" dy="2" result="offsetblur"/>
      <feFlood flood-color="#000000"/>
      <feComposite in2="offsetblur" operator="in"/>
    </filter>
    <clipPath id="Clip_3">
      <path d="M448.67,841.163 L512,841.163 L512,924.642 L448.67,924.642 z M505.984,849.166 C482.138,857.867 469.695,869.581 454.67,889.855 L454.67,916.642 C463.853,903.583 473.201,890.622 481.812,877.175 C493.556,858.249 506.521,848.977 505.984,849.166 z"/>
    </clipPath>
    <filter id="Shadow_4">
      <feGaussianBlur in="SourceAlpha" stdDeviation="2.5"/>
      <feOffset dx="0" dy="2" result="offsetblur"/>
      <feFlood flood-color="#000000"/>
      <feComposite in2="offsetblur" operator="in"/>
    </filter>
    <clipPath id="Clip_5">
      <path d="M314.782,885.711 L383.766,885.711 L383.766,943.648 L314.782,943.648 z M349.309,894.711 L339.641,917.386 L330.677,897.839 L321.782,897.839 L339.677,934.648 L349.309,912.605 L358.837,934.648 L376.766,897.839 L367.907,897.839 L359.048,917.386 L349.309,894.711 z"/>
    </clipPath>
    <filter id="Shadow_6">
      <feGaussianBlur in="SourceAlpha" stdDeviation="3"/>
      <feOffset dx="0" dy="2" result="offsetblur"/>
      <feFlood flood-color="#000000"/>
      <feComposite in2="offsetblur" operator="in"/>
    </filter>
    <clipPath id="Clip_7">
      <path d="M372.333,887.89 L421.137,887.89 L421.137,942.066 L372.333,942.066 z M396.946,904.027 Q401.27,904.027 403.977,907.086 Q406.684,910.215 406.684,915.031 Q406.684,919.847 403.977,922.976 Q401.27,926 396.876,926 Q392.762,926 390.055,922.871 Q387.419,919.777 387.419,914.855 Q387.419,910.25 390.126,907.121 Q392.868,904.027 396.946,904.027 z M395.469,896.89 Q388.544,896.89 383.938,902.023 Q379.333,907.156 379.333,914.855 Q379.333,922.695 383.938,927.933 Q388.579,933.066 395.68,933.066 Q401.305,933.066 406.192,928.496 L406.192,932.082 L414.137,932.082 L414.137,897.839 L406.192,897.839 L406.192,901.812 Q401.446,896.89 395.469,896.89 z"/>
    </clipPath>
    <filter id="Shadow_8">
      <feGaussianBlur in="SourceAlpha" stdDeviation="3"/>
      <feOffset dx="0" dy="2" result="offsetblur"/>
      <feFlood flood-color="#000000"/>
      <feComposite in2="offsetblur" operator="in"/>
    </filter>
    <clipPath id="Clip_9">
      <path d="M417.122,863.703 L439.032,863.703 L439.032,941.082 L417.122,941.082 z M432.032,872.703 L424.122,872.703 L424.122,932.082 L432.032,932.082 L432.032,872.703 z"/>
    </clipPath>
    <filter id="Shadow_10">
      <feGaussianBlur in="SourceAlpha" stdDeviation="3"/>
      <feOffset dx="0" dy="2" result="offsetblur"/>
      <feFlood flood-color="#000000"/>
      <feComposite in2="offsetblur" operator="in"/>
    </filter>
    <clipPath id="Clip_11">
      <path d="M435.052,863.703 L456.962,863.703 L456.962,941.082 L435.052,941.082 z M449.962,872.703 L442.052,872.703 L442.052,932.082 L449.962,932.082 L449.962,872.703 z"/>
    </clipPath>
    <filter id="Shadow_12">
      <feGaussianBlur in="SourceAlpha" stdDeviation="3"/>
      <feOffset dx="0" dy="2" result="offsetblur"/>
      <feFlood flood-color="#000000"/>
      <feComposite in2="offsetblur" operator="in"/>
    </filter>
  </defs>
  <g id="Layer_1" transform="translate(-315.782, -844.163)">
    <g>
      <path d="M419.67,937.071 L419.67,937.391 L440.139,937.391 C433.543,947.091 426.674,956.654 420.928,966.898 C420.287,968.077 416.595,959.039 385.241,940.798 C384.665,940.463 406.435,933.955 416.025,941.936 C418.745,938.312 417.531,939.935 419.67,937.071 z" clip-path="url(#Clip_1)" filter="url(#Shadow_2)" fill="rgba(0,0,0,0.75)"/>
      <path d="M419.67,937.071 L419.67,937.391 L440.139,937.391 C433.543,947.091 426.674,956.654 420.928,966.898 C420.287,968.077 416.595,959.039 385.241,940.798 C384.665,940.463 406.435,933.955 416.025,941.936 C418.745,938.312 417.531,939.935 419.67,937.071 z" fill="#72C6C7"/>
    </g>
    <g>
      <path d="M505.984,849.166 C506.521,848.977 493.556,858.249 481.812,877.175 C473.201,890.622 463.853,903.583 454.67,916.642 L454.67,889.855 C469.695,869.581 482.138,857.867 505.984,849.166 z" clip-path="url(#Clip_3)" filter="url(#Shadow_4)" fill="rgba(0,0,0,0.75)"/>
      <path d="M505.984,849.166 C506.521,848.977 493.556,858.249 481.812,877.175 C473.201,890.622 463.853,903.583 454.67,916.642 L454.67,889.855 C469.695,869.581 482.138,857.867 505.984,849.166 z" fill="#72C6C7"/>
    </g>
    <g>
      <g>
        <path d="M349.309,894.711 L359.048,917.386 L367.907,897.839 L376.766,897.839 L358.837,934.648 L349.309,912.605 L339.677,934.648 L321.782,897.839 L330.677,897.839 L339.641,917.386 L349.309,894.711 z" clip-path="url(#Clip_5)" filter="url(#Shadow_6)" fill="rgba(0,0,0,0.75)"/>
        <path d="M330.677,897.84 L339.641,917.386 L349.309,894.711 L359.048,917.386 L367.907,897.84 L376.766,897.84 L358.837,934.648 L349.309,912.605 L339.677,934.648 L321.782,897.84 z" fill="#FFFFFF"/>
      </g>
      <g>
        <path d="M395.469,896.89 Q401.446,896.89 406.192,901.812 L406.192,897.839 L414.137,897.839 L414.137,932.082 L406.192,932.082 L406.192,928.496 Q401.305,933.066 395.68,933.066 Q388.579,933.066 383.938,927.933 Q379.333,922.695 379.333,914.855 Q379.333,907.156 383.938,902.023 Q388.544,896.89 395.469,896.89 z M396.946,904.027 Q392.868,904.027 390.126,907.121 Q387.419,910.25 387.419,914.855 Q387.419,919.777 390.055,922.871 Q392.762,926 396.876,926 Q401.27,926 403.977,922.976 Q406.684,919.847 406.684,915.031 Q406.684,910.215 403.977,907.086 Q401.27,904.027 396.946,904.027 z" clip-path="url(#Clip_7)" filter="url(#Shadow_8)" fill="rgba(0,0,0,0.75)"/>
        <path d="M406.192,897.84 L414.137,897.84 L414.137,932.082 L406.192,932.082 L406.192,928.496 Q401.305,933.066 395.68,933.066 Q388.579,933.066 383.938,927.933 Q379.333,922.695 379.333,914.855 Q379.333,907.156 383.938,902.023 Q388.544,896.89 395.469,896.89 Q401.446,896.89 406.192,901.812 z M387.419,914.855 Q387.419,919.777 390.055,922.871 Q392.762,926 396.876,926 Q401.27,926 403.977,922.976 Q406.684,919.847 406.684,915.031 Q406.684,910.215 403.977,907.086 Q401.27,904.027 396.946,904.027 Q392.868,904.027 390.126,907.121 Q387.419,910.25 387.419,914.855 z" fill="#FFFFFF"/>
      </g>
      <g>
        <path d="M432.032,872.703 L432.032,932.082 L424.122,932.082 L424.122,872.703 L432.032,872.703 z" clip-path="url(#Clip_9)" filter="url(#Shadow_10)" fill="rgba(0,0,0,0.75)"/>
        <path d="M432.032,872.703 L432.032,932.082 L424.122,932.082 L424.122,872.703 z" fill="#FFFFFF"/>
      </g>
      <g>
        <path d="M449.962,872.703 L449.962,932.082 L442.052,932.082 L442.052,872.703 L449.962,872.703 z" clip-path="url(#Clip_11)" filter="url(#Shadow_12)" fill="rgba(0,0,0,0.75)"/>
        <path d="M449.962,872.703 L449.962,932.082 L442.052,932.082 L442.052,872.703 z" fill="#FFFFFF"/>
      </g>
    </g>
  </g>
</svg>
