<?xml version="1.0" encoding="UTF-8"?>
<!DOCTYPE svg PUBLIC "-//W3C//DTD SVG 1.1//EN" "http://www.w3.org/Graphics/SVG/1.1/DTD/svg11.dtd">
<svg version="1.1" xmlns="http://www.w3.org/2000/svg" xmlns:xlink="http://www.w3.org/1999/xlink" x="0" y="0" width="747.488" height="276.508" viewBox="0, 0, 747.488, 276.508">
  <g id="Layer_1" transform="translate(-181.946, -240.054)">
    <g>
      <path d="M181.946,312.626 C181.946,333.161 197.807,350.054 217.698,350.054 L287.446,350.054 C289.446,350.354 290.246,347.354 290.046,347.154 L289.946,285.754 C289.946,269.154 274.646,240.054 235.446,240.054 C197.046,240.054 181.946,269.154 181.946,285.483 L181.946,312.626 z M201.946,312.626 L201.946,285.483 C201.946,276.954 213.246,260.354 235.246,259.354 C260.432,258.209 269.846,279.354 269.846,285.626 L269.946,312.626 C269.946,322.387 262.747,330.054 254.193,330.054 L217.698,330.054 C209.144,330.054 201.946,322.387 201.946,312.626 z" fill="#4C99B3"/>
      <path d="M501.5,346.575 L501.5,348.575 L278,348.575 L278,346.575 L501.5,346.575 z" fill="#4C99B3"/>
      <path d="M292,286.506 C296.082,290.254 297.716,295.653 298,301.018 L298,307.982 C297.883,313.36 295.955,318.736 292,322.494 L292,286.506 z" fill="#4C99B3"/>
      <path d="M236.011,312.565 C227.45,312.565 220.511,305.625 220.511,297.065 C220.511,288.504 227.45,281.565 236.011,281.565 C244.571,281.565 251.511,288.504 251.511,297.065 C251.511,305.625 244.571,312.565 236.011,312.565 z" fill="#4C99B3"/>
      <path d="M507.133,341.937 C507.546,342.027 507.856,342.201 507.876,342.658 L507.876,360.077 L507.803,360.102 C506.641,357.616 504.727,355.678 502.385,354.289 L502.385,351.788 C502.385,349.439 500.28,347.463 497.6,347.463 L492.124,347.483 C492.932,345.013 495.072,342.688 497.612,341.96 L507.079,341.945 L507.133,341.937 z" fill="#4C99B3"/>
    </g>
    <g>
      <path d="M399.992,253.859 Q405.055,253.859 409.977,255.828 Q414.898,257.797 418.906,262.719 Q422.141,266.727 423.266,272.563 Q423.969,276.43 423.969,283.883 L423.828,332.188 L403.297,332.188 L403.297,283.391 Q403.297,279.031 401.891,276.219 Q399.219,270.875 392.047,270.875 Q383.75,270.875 380.586,277.766 Q378.969,281.422 378.969,286.555 L378.969,332.188 L358.789,332.188 L358.789,286.555 Q358.789,279.734 357.383,276.641 Q354.852,271.086 347.469,271.086 Q338.891,271.086 335.938,276.641 Q334.32,279.805 334.32,286.063 L334.32,332.188 L314,332.188 L314,255.688 L333.477,255.688 L333.477,266.867 Q337.203,260.891 340.508,258.359 Q346.344,253.859 355.625,253.859 Q364.414,253.859 369.828,257.727 Q374.188,261.313 376.438,266.938 Q380.375,260.188 386.211,257.023 Q392.398,253.859 399.992,253.859 z" fill="#FFFFFF"/>
      <path d="M472.625,270.031 Q465.664,270.031 461.832,274.391 Q458,278.75 457.016,286.203 L488.164,286.203 Q487.672,278.258 483.348,274.145 Q479.023,270.031 472.625,270.031 z M472.625,253.508 Q482.188,253.508 489.852,257.094 Q497.516,260.68 502.508,268.414 Q507.008,275.234 508.344,284.234 Q509.117,289.508 508.977,299.422 L456.523,299.422 Q456.945,310.953 463.766,315.594 Q467.914,318.477 473.75,318.477 Q479.938,318.477 483.805,314.961 Q485.914,313.063 487.531,309.688 L507.992,309.688 Q507.219,316.508 500.891,323.539 Q491.047,334.719 473.328,334.719 Q458.703,334.719 447.523,325.297 Q436.344,315.875 436.344,294.641 Q436.344,274.742 446.434,264.125 Q456.523,253.508 472.625,253.508 z" fill="#FFFFFF"/>
      <path d="M564.734,294.922 Q562.836,296.117 560.902,296.856 Q558.969,297.594 555.594,298.227 L551.094,299.07 Q544.766,300.195 542.023,301.813 Q537.383,304.555 537.383,310.32 Q537.383,315.453 540.23,317.738 Q543.078,320.023 547.156,320.023 Q553.625,320.023 559.074,316.227 Q564.523,312.43 564.734,302.375 z M552.57,285.57 Q558.125,284.867 560.516,283.813 Q564.805,281.984 564.805,278.117 Q564.805,273.406 561.535,271.613 Q558.266,269.82 551.938,269.82 Q544.836,269.82 541.883,273.336 Q539.773,275.938 539.07,280.367 L519.734,280.367 Q520.367,270.313 525.359,263.844 Q533.305,253.719 552.641,253.719 Q565.227,253.719 575,258.711 Q584.773,263.703 584.773,277.555 L584.773,312.711 Q584.773,316.367 584.914,321.57 Q585.125,325.508 586.109,326.914 Q587.094,328.32 589.062,329.234 L589.062,332.188 L567.266,332.188 Q566.352,329.867 566,327.828 Q565.648,325.789 565.438,323.188 Q561.289,327.688 555.875,330.852 Q549.406,334.578 541.25,334.578 Q530.844,334.578 524.059,328.637 Q517.273,322.695 517.273,311.797 Q517.273,297.664 528.172,291.336 Q534.148,287.891 545.75,286.414 z" fill="#FFFFFF"/>
      <path d="M618.172,307.719 Q618.805,313.063 620.914,315.313 Q624.641,319.32 634.695,319.32 Q640.602,319.32 644.082,317.563 Q647.562,315.805 647.562,312.289 Q647.562,308.914 644.75,307.156 Q641.938,305.398 623.867,301.109 Q610.859,297.875 605.516,293.023 Q600.172,288.242 600.172,279.242 Q600.172,268.625 608.504,260.996 Q616.836,253.367 631.953,253.367 Q646.297,253.367 655.332,259.098 Q664.367,264.828 665.703,278.891 L645.664,278.891 Q645.242,275.023 643.484,272.773 Q640.18,268.695 632.234,268.695 Q625.695,268.695 622.918,270.734 Q620.141,272.773 620.141,275.516 Q620.141,278.961 623.094,280.508 Q626.047,282.125 643.977,286.063 Q655.93,288.875 661.906,294.57 Q667.812,300.336 667.812,308.984 Q667.812,320.375 659.34,327.582 Q650.867,334.789 633.148,334.789 Q615.078,334.789 606.465,327.16 Q597.852,319.531 597.852,307.719 z" fill="#FFFFFF"/>
      <path d="M702.617,255.547 L702.617,301.742 Q702.617,308.281 704.164,311.586 Q706.906,317.422 714.922,317.422 Q725.188,317.422 728.984,309.125 Q730.953,304.625 730.953,297.242 L730.953,255.547 L751.273,255.547 L751.273,332.188 L731.797,332.188 L731.797,321.359 Q731.516,321.711 730.391,323.469 Q729.266,325.227 727.719,326.563 Q723.008,330.781 718.613,332.328 Q714.219,333.875 708.312,333.875 Q691.297,333.875 685.391,321.641 Q682.086,314.891 682.086,301.742 L682.086,255.547 z" fill="#FFFFFF"/>
      <path d="M812.234,253.719 Q812.797,253.719 813.184,253.754 Q813.57,253.789 814.906,253.859 L814.906,274.391 Q813.008,274.18 811.531,274.109 Q810.055,274.039 809.141,274.039 Q797.047,274.039 792.898,281.914 Q790.578,286.344 790.578,295.555 L790.578,332.188 L770.398,332.188 L770.398,255.547 L789.523,255.547 L789.523,268.906 Q794.164,261.242 797.609,258.43 Q803.234,253.719 812.234,253.719 z" fill="#FFFFFF"/>
      <path d="M856.883,270.031 Q849.922,270.031 846.09,274.391 Q842.258,278.75 841.273,286.203 L872.422,286.203 Q871.93,278.258 867.605,274.145 Q863.281,270.031 856.883,270.031 z M856.883,253.508 Q866.445,253.508 874.109,257.094 Q881.773,260.68 886.766,268.414 Q891.266,275.234 892.602,284.234 Q893.375,289.508 893.234,299.422 L840.781,299.422 Q841.203,310.953 848.023,315.594 Q852.172,318.477 858.008,318.477 Q864.195,318.477 868.062,314.961 Q870.172,313.063 871.789,309.688 L892.25,309.688 Q891.477,316.508 885.148,323.539 Q875.305,334.719 857.586,334.719 Q842.961,334.719 831.781,325.297 Q820.602,315.875 820.602,294.641 Q820.602,274.742 830.691,264.125 Q840.781,253.508 856.883,253.508 z" fill="#FFFFFF"/>
    </g>
    <g>
      <path d="M528.613,438.195 L531.145,438.336 Q534.098,438.477 536.77,438.125 Q539.441,437.773 541.27,436.508 Q543.027,435.312 544.539,431.516 Q546.051,427.719 545.77,426.875 L517.645,346.859 L539.934,346.859 L556.668,403.391 L572.488,346.859 L593.793,346.859 L567.496,422.234 Q559.902,444.031 555.473,449.27 Q551.043,454.508 537.754,454.508 Q535.082,454.508 533.465,454.473 Q531.848,454.438 528.613,454.227 z" fill="#FFFFFF"/>
      <path d="M639.988,409.367 Q648.777,409.367 653.488,403.109 Q658.199,396.852 658.199,385.32 Q658.199,373.789 653.488,367.566 Q648.777,361.344 639.988,361.344 Q631.199,361.344 626.453,367.566 Q621.707,373.789 621.707,385.32 Q621.707,396.852 626.453,403.109 Q631.199,409.367 639.988,409.367 z M679.223,385.32 Q679.223,402.195 669.52,414.184 Q659.816,426.172 640.059,426.172 Q620.301,426.172 610.598,414.184 Q600.895,402.195 600.895,385.32 Q600.895,368.727 610.598,356.562 Q620.301,344.398 640.059,344.398 Q659.816,344.398 669.52,356.562 Q679.223,368.727 679.223,385.32 z" fill="#FFFFFF"/>
      <path d="M713.535,346.859 L713.535,393.055 Q713.535,399.594 715.082,402.898 Q717.824,408.734 725.84,408.734 Q736.105,408.734 739.902,400.438 Q741.871,395.938 741.871,388.555 L741.871,346.859 L762.191,346.859 L762.191,423.5 L742.715,423.5 L742.715,412.672 Q742.434,413.023 741.309,414.781 Q740.184,416.539 738.637,417.875 Q733.926,422.094 729.531,423.641 Q725.137,425.188 719.23,425.188 Q702.215,425.188 696.309,412.953 Q693.004,406.203 693.004,393.055 L693.004,346.859 z" fill="#FFFFFF"/>
      <path d="M823.152,345.031 Q823.715,345.031 824.102,345.066 Q824.488,345.102 825.824,345.172 L825.824,365.703 Q823.926,365.492 822.449,365.422 Q820.973,365.352 820.059,365.352 Q807.965,365.352 803.816,373.227 Q801.496,377.656 801.496,386.867 L801.496,423.5 L781.316,423.5 L781.316,346.859 L800.441,346.859 L800.441,360.219 Q805.082,352.555 808.527,349.742 Q814.152,345.031 823.152,345.031 z" fill="#FFFFFF"/>
    </g>
    <g>
      <path d="M629.48,435.422 Q630.043,435.422 630.43,435.457 Q630.816,435.492 632.152,435.563 L632.152,456.094 Q630.254,455.883 628.777,455.813 Q627.301,455.742 626.387,455.742 Q614.293,455.742 610.145,463.617 Q607.824,468.047 607.824,477.258 L607.824,513.891 L587.645,513.891 L587.645,437.25 L606.77,437.25 L606.77,450.609 Q611.41,442.945 614.855,440.133 Q620.48,435.422 629.48,435.422 z" fill="#FFFFFF"/>
      <path d="M678.277,499.758 Q687.066,499.758 691.777,493.5 Q696.488,487.242 696.488,475.711 Q696.488,464.18 691.777,457.957 Q687.066,451.734 678.277,451.734 Q669.488,451.734 664.742,457.957 Q659.996,464.18 659.996,475.711 Q659.996,487.242 664.742,493.5 Q669.488,499.758 678.277,499.758 z M717.512,475.711 Q717.512,492.586 707.809,504.574 Q698.105,516.563 678.348,516.563 Q658.59,516.563 648.887,504.574 Q639.184,492.586 639.184,475.711 Q639.184,459.117 648.887,446.953 Q658.59,434.789 678.348,434.789 Q698.105,434.789 707.809,446.953 Q717.512,459.117 717.512,475.711 z" fill="#FFFFFF"/>
      <path d="M766.238,499.758 Q775.027,499.758 779.738,493.5 Q784.449,487.242 784.449,475.711 Q784.449,464.18 779.738,457.957 Q775.027,451.734 766.238,451.734 Q757.449,451.734 752.703,457.957 Q747.957,464.18 747.957,475.711 Q747.957,487.242 752.703,493.5 Q757.449,499.758 766.238,499.758 z M805.473,475.711 Q805.473,492.586 795.77,504.574 Q786.066,516.563 766.309,516.563 Q746.551,516.563 736.848,504.574 Q727.145,492.586 727.145,475.711 Q727.145,459.117 736.848,446.953 Q746.551,434.789 766.309,434.789 Q786.066,434.789 795.77,446.953 Q805.473,459.117 805.473,475.711 z" fill="#FFFFFF"/>
      <path d="M905.457,435.563 Q910.52,435.563 915.441,437.531 Q920.363,439.5 924.371,444.422 Q927.605,448.43 928.73,454.266 Q929.434,458.133 929.434,465.586 L929.293,513.891 L908.762,513.891 L908.762,465.094 Q908.762,460.734 907.355,457.922 Q904.684,452.578 897.512,452.578 Q889.215,452.578 886.051,459.469 Q884.434,463.125 884.434,468.258 L884.434,513.891 L864.254,513.891 L864.254,468.258 Q864.254,461.438 862.848,458.344 Q860.316,452.789 852.934,452.789 Q844.355,452.789 841.402,458.344 Q839.785,461.508 839.785,467.766 L839.785,513.891 L819.465,513.891 L819.465,437.391 L838.941,437.391 L838.941,448.57 Q842.668,442.594 845.973,440.063 Q851.809,435.563 861.09,435.563 Q869.879,435.563 875.293,439.43 Q879.652,443.016 881.902,448.641 Q885.84,441.891 891.676,438.727 Q897.863,435.563 905.457,435.563 z" fill="#FFFFFF"/>
    </g>
  </g>
</svg>
